<?xml version="1.0"?>
<svg xmlns="http://www.w3.org/2000/svg" width="512px" height="512px" viewBox="0 0 512 512" class=""><g><g><path d="M472,64H320a8.27,8.27,0,0,0-1.88.23L258.97,40.57a8.023,8.023,0,0,0-5.94,0L193.88,64.23A8.27,8.27,0,0,0,192,64H40A32.03,32.03,0,0,0,8,96V368a32.03,32.03,0,0,0,32,32H204.9l-10.67,32H168a8,8,0,0,0-8,8v16H88a8,8,0,0,0,0,16H440a8,8,0,0,0,0-16H352V440a8,8,0,0,0-8-8H317.77L307.1,400H472a32.03,32.03,0,0,0,32-32V96A32.03,32.03,0,0,0,472,64ZM256,56.62,354.46,96,256,135.38,157.54,96Zm0,174.76L157.54,192,196,176.62l57.03,22.81a8.023,8.023,0,0,0,5.94,0L316,176.62,354.46,192Zm60-6.76L354.46,240,256,279.38,157.54,240,196,224.62l57.03,22.81a8.023,8.023,0,0,0,5.94,0Zm-60-41.24L157.54,144,196,128.62l57.03,22.81a8.023,8.023,0,0,0,5.94,0L316,128.62,354.46,144ZM336,448v8H176v-8ZM211.1,432l10.67-32h68.46l10.67,32ZM488,368a16.021,16.021,0,0,1-16,16H40a16.021,16.021,0,0,1-16-16V352H488Zm0-32H24V96A16.021,16.021,0,0,1,40,80H154.46l-21.43,8.57a8,8,0,0,0,0,14.86L174.46,120l-41.43,16.57a8,8,0,0,0,0,14.86L174.46,168l-41.43,16.57a8,8,0,0,0,0,14.86L174.46,216l-41.43,16.57a8,8,0,0,0,0,14.86l120,48a8.023,8.023,0,0,0,5.94,0l120-48a8,8,0,0,0,0-14.86L337.54,216l41.43-16.57a8,8,0,0,0,0-14.86L337.54,168l41.43-16.57a8,8,0,0,0,0-14.86L337.54,120l41.43-16.57a8,8,0,0,0,0-14.86L357.54,80H472a16.021,16.021,0,0,1,16,16Z" data-original="#000000" class="active-path" data-old_color="#000000" fill="#FFFFFF"/><path d="M96,360H48a8,8,0,0,0,0,16H96a8,8,0,0,0,0-16Z" data-original="#000000" class="active-path" data-old_color="#000000" fill="#FFFFFF"/><path d="M128,360h-8a8,8,0,0,0,0,16h8a8,8,0,0,0,0-16Z" data-original="#000000" class="active-path" data-old_color="#000000" fill="#FFFFFF"/><path d="M160,320H352a8,8,0,0,0,0-16H160a8,8,0,0,0,0,16Z" data-original="#000000" class="active-path" data-old_color="#000000" fill="#FFFFFF"/><path d="M48,144H72a8,8,0,0,0,8-8V112a8,8,0,0,0-8-8H48a8,8,0,0,0-8,8v24A8,8,0,0,0,48,144Zm8-24h8v8H56Z" data-original="#000000" class="active-path" data-old_color="#000000" fill="#FFFFFF"/><path d="M48,192H72a8,8,0,0,0,8-8V160a8,8,0,0,0-8-8H48a8,8,0,0,0-8,8v24A8,8,0,0,0,48,192Zm8-24h8v8H56Z" data-original="#000000" class="active-path" data-old_color="#000000" fill="#FFFFFF"/><path d="M48,240H72a8,8,0,0,0,8-8V208a8,8,0,0,0-8-8H48a8,8,0,0,0-8,8v24A8,8,0,0,0,48,240Zm8-24h8v8H56Z" data-original="#000000" class="active-path" data-old_color="#000000" fill="#FFFFFF"/><path d="M48,288H72a8,8,0,0,0,8-8V256a8,8,0,0,0-8-8H48a8,8,0,0,0-8,8v24A8,8,0,0,0,48,288Zm8-24h8v8H56Z" data-original="#000000" class="active-path" data-old_color="#000000" fill="#FFFFFF"/><path d="M440,144h24a8,8,0,0,0,8-8V112a8,8,0,0,0-8-8H440a8,8,0,0,0-8,8v24A8,8,0,0,0,440,144Zm8-24h8v8h-8Z" data-original="#000000" class="active-path" data-old_color="#000000" fill="#FFFFFF"/><path d="M440,192h24a8,8,0,0,0,8-8V160a8,8,0,0,0-8-8H440a8,8,0,0,0-8,8v24A8,8,0,0,0,440,192Zm8-24h8v8h-8Z" data-original="#000000" class="active-path" data-old_color="#000000" fill="#FFFFFF"/><path d="M440,240h24a8,8,0,0,0,8-8V208a8,8,0,0,0-8-8H440a8,8,0,0,0-8,8v24A8,8,0,0,0,440,240Zm8-24h8v8h-8Z" data-original="#000000" class="active-path" data-old_color="#000000" fill="#FFFFFF"/><path d="M440,288h24a8,8,0,0,0,8-8V256a8,8,0,0,0-8-8H440a8,8,0,0,0-8,8v24A8,8,0,0,0,440,288Zm8-24h8v8h-8Z" data-original="#000000" class="active-path" data-old_color="#000000" fill="#FFFFFF"/></g></g> </svg>
